# xmcd
#
# Track frame offsets:
#	150
#	11763
#	33825
#	54843
#	84783
#	111943
#	134705
#	184413
#	218388
#
# Disc length: 3239
#
# Revision: 1
# Processed by: cddbd v1.5.1PL0 Copyright (c) Steve Scherf et al.
# Submitted via: ExactAudioCopy v0.90b4
# Normalized: r0:TRMNUM
#
DISCID=6f0ca509
DTITLE=Stevie Ray Vaughan - Rocking On The River
DYEAR=1987
DGENRE=Blues
TTITLE0=Scuttle Buttin
TTITLE1=Say What
TTITLE2=Superstition
TTITLE3=Willie The Wimp
TTITLE4=Might Be Your Time
TTITLE5=Let The Good Times Roll
TTITLE6=Aint Gonna Give Up On Love
TTITLE7=Couldnt Stand The Weather
TTITLE8=Love Struck Baby
EXTD=Live in New Orleans on the Riverboat "President"\n1987
EXTT0=
EXTT1=
EXTT2=
EXTT3=
EXTT4=
EXTT5=
EXTT6=
EXTT7=
EXTT8=
PLAYORDER=
